<?xml version="1.0" encoding="UTF-8"?><svg id="Inner_Ring" xmlns="http://www.w3.org/2000/svg" viewBox="0 0 600 600"><defs><style>.cls-1{fill:#fff;}</style></defs><path class="cls-1" d="M158.06,425.07l-23.94,23.89c-72.45-74.94-80.97-210.41-.68-297.42l24.15,24.11c-30.29,35.28-46.46,76.92-46.51,124.2-.05,47.29,15.97,89.02,46.97,125.22Z"/><path class="cls-1" d="M443.18,175.68l24.03-24.05c73.56,78.08,78.64,211.63,0,297.33l-24.16-24.21c30.43-35.56,46.56-77.17,46.59-124.49s-16.08-89.04-46.46-124.57Z"/><path class="cls-1" d="M288.02,59.5v51.51c-20.7,1.42-41.04,6.17-60.23,14.05-18.8,7.79-36.22,18.57-51.58,31.92l-24.83-24.87c10.97-7.73,22.18-16.44,34.15-23.88,24.49-15.16,51.36-24.41,79.77-29.33,2.61-.52,5.02-1.74,6.99-3.53,5.14-4.84,10.02-10.04,15.74-15.87Z"/><path class="cls-1" d="M424.93,442.91l24.05,24.11c-.75,.71-1.88,1.88-3.08,2.94-31.58,27.15-70.11,44.94-111.25,51.37-2.12,.46-4.06,1.5-5.62,3.01-5.27,4.88-10.27,10.01-15.41,15.03-.08,.07-.31,0-.71,0v-50.14c42.36-3.26,79.97-18.64,112.02-46.31Z"/><path class="cls-1" d="M448.7,133.33l-23.63,23.63-6.42-5.14c-27.74-21.93-59-35.36-94.12-39.71q-11.81-1.46-11.8-13.76V61.63l1.33-.84c4.31,4.51,8.89,8.79,12.86,13.59,3.27,3.97,7.52,4.84,12.09,5.64,41.09,7.14,77.17,24.77,108.63,52.03,.4,.39,.75,.82,1.07,1.27Z"/><path class="cls-1" d="M286.2,539.5c-3.83-4.22-7.77-8.22-11.3-12.51s-7.85-5.96-13.13-6.85c-40.4-6.84-75.93-24.13-107.11-50.58-.78-.67-1.5-1.4-2.21-2.14-.14-.18-.24-.4-.29-.63l23.55-23.52c1.96,1.56,4.19,3.38,6.44,5.14,29.18,23.3,64.6,37.45,101.8,40.66,1.4,.13,3.73,2.2,3.74,3.39,.22,15.06,.09,30.11,0,45.2,0,.24-.37,.48-1.49,1.83Z"/></svg>